<svg width="29" height="33" viewBox="0 0 29 33" fill="none" xmlns="http://www.w3.org/2000/svg">
<path d="M28.5916 10.7854C26.8761 3.34829 20.2919 0 14.5082 0C14.5082 0 14.5082 0 14.4919 0C8.72448 0 2.12391 3.33219 0.408415 10.7693C-1.50314 19.0756 3.65969 26.1102 8.33237 30.5371C10.0642 32.179 12.2862 33 14.5082 33C16.7302 33 18.9521 32.179 20.6676 30.5371C25.3403 26.1102 30.5031 19.0917 28.5916 10.7854ZM14.5082 18.8502C11.6654 18.8502 9.36166 16.5805 9.36166 13.7795C9.36166 10.9785 11.6654 8.70878 14.5082 8.70878C17.351 8.70878 19.6547 10.9785 19.6547 13.7795C19.6547 16.5805 17.351 18.8502 14.5082 18.8502Z" fill="white"/>
</svg>
