<svg width="32" height="27" viewBox="0 0 32 27" fill="none" xmlns="http://www.w3.org/2000/svg">
<path d="M23.8235 0H7.94118C3.17647 0 0 2.38235 0 7.94118V19.0588C0 24.6176 3.17647 27 7.94118 27H23.8235C28.5882 27 31.7647 24.6176 31.7647 19.0588V7.94118C31.7647 2.38235 28.5882 0 23.8235 0ZM24.57 9.67235L19.5988 13.6429C18.5506 14.4847 17.2165 14.8976 15.8824 14.8976C14.5482 14.8976 13.1982 14.4847 12.1659 13.6429L7.19471 9.67235C6.68647 9.25941 6.60706 8.49706 7.00412 7.98882C7.41706 7.48059 8.16353 7.38529 8.67176 7.79823L13.6429 11.7688C14.85 12.7376 16.8988 12.7376 18.1059 11.7688L23.0771 7.79823C23.5853 7.38529 24.3476 7.46471 24.7447 7.98882C25.1576 8.49706 25.0782 9.25941 24.57 9.67235Z" fill="white"/>
</svg>
