<svg width="29" height="29" viewBox="0 0 29 29" fill="none" xmlns="http://www.w3.org/2000/svg">
<path d="M22.6493 12.6899C22.0258 12.6899 21.5328 12.1824 21.5328 11.5734C21.5328 11.0369 20.9963 9.92036 20.0973 8.94885C19.2128 8.00634 18.2413 7.45533 17.4293 7.45533C16.8057 7.45533 16.3127 6.94783 16.3127 6.33882C16.3127 5.72981 16.8202 5.22231 17.4293 5.22231C18.8793 5.22231 20.4018 6.00532 21.7358 7.41183C22.9828 8.73134 23.7803 10.3699 23.7803 11.5589C23.7803 12.1824 23.2728 12.6899 22.6493 12.6899Z" fill="white"/>
<path d="M27.8833 12.6876C27.2598 12.6876 26.7668 12.1801 26.7668 11.5711C26.7668 6.42356 22.5762 2.24752 17.4432 2.24752C16.8197 2.24752 16.3267 1.74001 16.3267 1.13101C16.3267 0.522001 16.8197 -3.8147e-06 17.4287 -3.8147e-06C23.8087 -3.8147e-06 28.9998 5.19105 28.9998 11.5711C28.9998 12.1801 28.4923 12.6876 27.8833 12.6876Z" fill="white"/>
<path d="M13.1226 18.7777L10.4401 21.4602C9.8746 22.0257 8.97559 22.0257 8.39558 21.4747C8.23608 21.3152 8.07658 21.1702 7.91708 21.0107C6.42356 19.5027 5.07505 17.9222 3.87154 16.2692C2.68253 14.6161 1.72552 12.9631 1.02951 11.3246C0.348004 9.6716 0 8.09108 0 6.58307C0 5.59706 0.174002 4.65455 0.522005 3.78454C0.870009 2.90003 1.42101 2.08802 2.18952 1.36301C3.11753 0.449505 4.13254 0 5.20555 0C5.61156 0 6.01756 0.087001 6.38006 0.261003C6.75707 0.435004 7.09057 0.696007 7.35157 1.07301L10.7156 5.81456C10.9766 6.17706 11.1651 6.51057 11.2956 6.82957C11.4261 7.13407 11.4986 7.43858 11.4986 7.71408C11.4986 8.06208 11.3971 8.41008 11.1941 8.74359C11.0056 9.07709 10.7301 9.42509 10.3821 9.7731L9.28009 10.9186C9.12059 11.0781 9.04809 11.2666 9.04809 11.4986C9.04809 11.6146 9.06259 11.7161 9.09159 11.8321C9.13509 11.9481 9.17859 12.0351 9.20759 12.1221C9.4686 12.6006 9.9181 13.2241 10.5561 13.9781C11.2086 14.7321 11.9046 15.5007 12.6586 16.2692C12.8036 16.4142 12.9631 16.5592 13.1081 16.7042C13.6881 17.2697 13.7026 18.1977 13.1226 18.7777Z" fill="white"/>
<path d="M28.9562 23.6774C28.9562 24.0834 28.8837 24.5039 28.7387 24.9099C28.6952 25.0259 28.6517 25.1419 28.5937 25.2579C28.3472 25.78 28.0282 26.273 27.6077 26.737C26.8972 27.52 26.1142 28.0855 25.2297 28.448C25.2152 28.448 25.2007 28.4625 25.1862 28.4625C24.3307 28.8105 23.4026 28.999 22.4021 28.999C20.9231 28.999 19.3426 28.651 17.6751 27.9405C16.0076 27.23 14.3401 26.273 12.687 25.0694C12.1215 24.6489 11.556 24.2284 11.0195 23.7789L15.7611 19.0374C16.1671 19.3419 16.5296 19.5739 16.8341 19.7334C16.9066 19.7624 16.9936 19.8059 17.0951 19.8494C17.2111 19.8929 17.3271 19.9074 17.4576 19.9074C17.7041 19.9074 17.8926 19.8204 18.0521 19.6609L19.1541 18.5734C19.5166 18.2109 19.8646 17.9354 20.1981 17.7614C20.5316 17.5584 20.8651 17.4569 21.2276 17.4569C21.5031 17.4569 21.7931 17.5149 22.1121 17.6454C22.4311 17.7759 22.7646 17.9644 23.1271 18.2109L27.9267 21.6184C28.3037 21.8794 28.5647 22.1839 28.7242 22.5464C28.8692 22.9089 28.9562 23.2714 28.9562 23.6774Z" fill="white"/>
</svg>
